<svg enable-background="new 0 0 235.5 71.8" version="1.1" viewBox="0 0 235.5 71.8" xml:space="preserve" xmlns="http://www.w3.org/2000/svg" xmlns:xlink="http://www.w3.org/1999/xlink">
			<defs>
				<rect id="b" width="66.8" height="71.8"></rect>
			</defs>
			<clipPath id="a">
				<use overflow="visible" xlink:href="#b"></use>
			</clipPath>
			<path d="m14 71.8v-0.8-1.5-0.4l-0.1-7.5-10.2 2.7-0.4 0.1-1.5 0.4-0.8 0.2v-0.8-1.5-0.4-11.8-0.7l0.1-0.2 0.2-0.3 0.1-0.1 1.9-2.9 0.1-0.1 0.2-0.4 0.1-0.2 0.3 0.1 0.4-0.1h0.1l0.4-0.1h0.1l0.5-0.1 0.6-0.2c-3.8-1.4-5.9-4.5-6.2-9.3-0.3-4.6 0.6-6.8 1.5-8.8l0.2-0.5c2.7-5.4 7.8-9.5 11.8-11.3v-0.7-6.1-0.1-0.4-0.2l0.1-0.2 0.5-0.5 0.1-0.1 2.1-2.9 0.2-0.3 0.1-0.2 0.2-0.1 0.4-0.1h0.1l0.3-0.1h0.1l0.5-0.3c0.6-0.2 6.3-2.3 14.3-2.9 1.4 0 2.8-0.1 4.2-0.1 1.7 0 3.3 0.1 4.9 0.2 0.4 0 10.1 0.9 11.1 12.7 1.2 0.4 4.7 1.4 5.6 1.7 0.7 0.2 3.1 1 6.7 2.3l0.2 0.1 0.2 0.1 0.8 0.3 0.4 0.1v0.4 0.8 0.2 0.4 0.1 0.5l-0.1 8.7v1 0.2 0.7 0.1 0.4 0.2l-0.1 0.2-0.2 0.3-0.1 0.3-2 2.8-0.2 0.2-0.5 0.7c1.5 1.8 2.5 3.7 2.9 5.5 0.7 3.1 0.9 7.9-1 11.4l-0.1 0.1-0.1 0.1c-0.7 1.4-2.8 5.5-7.7 7-1.3 0.4-2.9 0.6-4.5 0.6-0.6 0-1.2 0-1.8-0.1-0.8 1.5-2.7 5-5.2 6.5-2.1 1.3-4 1.5-5 1.5h-0.8-0.2-0.3c-0.9-0.1-2.6-0.3-4.8-0.3-0.8 0-1.7 0-2.5 0.1-4.7 0.3-8.9 1-12.8 2.1l-0.9 0.3-0.2 0.1-0.7 0.2-0.9 0.2-0.4 0.1-1.5 0.4-0.8 0.3z" clip-path="url(#a)" fill="#fff"></path>
		<path d="m30.7 43.1v-2.8s3-0.4 9 0.2v2.4c0.1 0-5-0.4-9 0.2zm0.1-17.9s2.9-0.6 8.9 0v2.4s-5-0.3-9 0.4l0.1-2.8zm33.7 16.4c-0.8-3.2-3.3-6.4-7.7-9.3l5.3 1.6 0.2 0.1 0.1-0.2 2.1-2.8 0.1-0.1v-0.1-0.7-0.2-1l0.1-8.7v-0.5-0.1-0.4-0.2l-0.2-0.1c-0.1 0-5.8-2-6.9-2.3-1-0.3-5.7-1.8-6.8-2.1-0.2-11.6-9.1-12.5-9.5-12.5-1.5-0.1-3.1-0.2-4.8-0.2-1.3 0-2.7 0-4 0.1-8 0.6-13.6 2.7-13.8 2.8l-0.5 0.2h-0.1l-0.3 0.1h-0.1l-0.1 0.1-2.1 2.9-0.1 0.1v0.1l-0.1 6.1v1.9c-4.3 1.8-7.5 4.3-9.3 7.3l-0.1 0.1c-0.1 0.2-0.2 0.4-0.4 0.6-0.2 0.3-1.6 1.8-2.1 2.9l-0.2 0.5c-0.9 2-1.7 3.8-1.4 8 0.4 5.8 3.6 8.6 10 8.6 1 0 2.2 0 3.3-0.1 1.3-0.1 3.3-0.5 3.3-0.5l-0.4 0.1-0.2 0.1-0.9 0.2-10.8 3-0.5 0.1h-0.1l-0.5 0.1h-0.1l-0.1 0.1-1.9 2.8-0.1 0.1v0.1 11.8 0.4l0.4-0.1 12.4-3.5v0.1l0.1 9.8v0.4l0.4-0.1 1.2-0.3 0.7-0.2 0.2-0.1 0.9-0.3c4-1.2 8.3-1.9 13.2-2.2 0.8-0.1 1.7-0.1 2.6-0.1 2.3 0 4.1 0.2 4.9 0.3h0.2 0.1 0.1 0.1 0.6c0.8 0 2.3-0.2 4.1-1.2 2.3-1.4 4.5-5.5 5-6.9 0.5 0.1 1.6 0.2 2.9 0.2 1.5 0 2.9-0.2 4-0.5 4.2-1.3 6-4.9 6.6-6.1 0-0.1 0.1-0.2 0.1-0.2 1.7-2.6 1.6-6.9 0.9-9.9z" fill="#0C2340"></path>
		<path d="m52.2 46.2l-2.1-0.6v-0.3-6.5l2.3 0.7-0.2 6.7zm-19-33.1c-1.1 0.1-2.1 0.2-3.2 0.3v-2c1.1-0.2 2.3-0.3 3.4-0.4 4.1-0.3 7.5 0.2 8.9 0.4v1.9c-2.5-0.3-5.6-0.5-9.1-0.2zm-0.3 30.6c-1.8 0.1-2.8 0.3-3.1 0.4v-6.8-0.1h0.1c0.9-0.1 1.8-0.2 2.7-0.3 4.8-0.3 9.4 0.2 9.5 0.3h0.2v6.9c-4.1-0.6-7.3-0.6-9.4-0.4zm9.4 8.7v1.6c-3.1-0.3-6.2-0.4-9.2-0.2-1.4 0.1-2.5 0.2-3.2 0.3v-1.9h0.1c0.8-0.1 1.6-0.2 2.4-0.2 4.1-0.3 7.5-0.1 10.1 0.2l-0.2 0.2zm-23.6-21c0.1-2.7 0.2-5.6 0.1-6.9l2.6-0.6 0.2-0.1v6.6 0.2c-1.2 0.3-2.2 0.5-2.9 0.8zm11.2-9.4l0.3-0.1c0.2 0 1.4-0.2 3.2-0.4 2-0.1 5.2-0.2 8.9 0.2v0.2 6.7c-2.4-0.4-5.2-0.5-8.3-0.2-1.4 0.1-2.8 0.3-4.1 0.4v-6.8zm33.9 19.9c-1-4.1-4.8-7.3-7.9-9.4-2.4-1.6-5.4-2.3-5.5-2.3l-0.3-0.1v-6.8c0.8 0.2 1.6 0.5 2.3 0.7l0.1 1.7v0.5 0.1h0.1l0.5 0.2 9.6 3 0.9 0.3 0.2 0.1v-0.2-1l0.2-8.7v-0.5-0.1h-0.1l-0.5-0.2c-0.1 0-8.7-3-13.3-4.3v-0.3c-0.1-11-8.3-11.8-8.6-11.8-2.8-0.3-5.7-0.3-8.6-0.1-7.9 0.6-13.4 2.6-13.6 2.7l-0.5 0.2h-0.1v0.1 0.5 6.5 0.9 0.2l0.2-0.1 0.9-0.2 1.9-0.4v2l-0.7 0.3c-6.9 1.6-11.6 4.5-14.1 8.4-1.9 3-2.4 6.8-1.5 11 0.8 3.9 4.4 5.8 10.3 5.4 1.7-0.1 2.8-0.4 3-0.4 0.3-0.1 0.7-0.2 1.3-0.4h0.1c0.4-0.1 0.9-0.3 1.4-0.4v6.8l-0.7 0.2-2.3 0.6v-1.1-1-0.2l-0.2 0.1-0.9 0.3-10.8 3-0.6 0.2h-0.1v0.1 0.6 8.8 1 0.2l0.2-0.1 0.9-0.2 14.2-4 0.3-0.1v1.6l-2.1 0.6-0.5 0.2h-0.1v0.7 6.7 1 0.2l0.2-0.1 0.9-0.3c4.5-1.3 9-2.1 13.4-2.5 4.4-0.3 7.5 0 8.5 0.1h0.3 1.3c2-0.1 3.7-1 4.8-2.5 1.6-2.1 1.6-5.1 1.5-6.1 2.4 0.7 4.5 0.9 6.3 0.8 1.7-0.1 3.2-0.6 4.8-1.4 3.8-1.6 3.8-7.8 3-11.3z" fill="#fff"></path>
		<path d="m14.2 39.1c2.3 0 4.2-0.4 4.2-0.4 0.2-0.1 0.7-0.2 1.3-0.4 2.1-0.6 6.1-1.7 10.1-2.4 1.8-0.3 3.9-0.4 6.2-0.4 2.8 0 5.4 0.2 6.3 0.3v-6c-1.4-0.2-3.2-0.3-4.9-0.3-9.3 0-19.5 3.3-19.6 3.4l-0.5 0.2v-0.5c0.3-3.7 0.1-8.8 0.1-8.8v-0.3l0.3-0.1 3.8-1.1v-6c-11.3 2.8-16.8 9.1-15 18.2 0.8 3.8 4.6 4.6 7.7 4.6zm48.4 3.1c-0.9-3.9-5-7.1-7.3-8.6-1.7-1.1-4.1-1.9-5-2.1l-0.1 6 3.2 1 0.2 0.1v0.3l-0.3 8.7v0.4l-0.4-0.1c-7.1-2.4-13.1-2.9-17-2.9-3 0-5.3 0.3-6 0.4l-0.2 5.7c2-0.2 4.4-0.3 6.4-0.3 7.3 0 11.6 1.4 11.8 1.5 2.8 1 5.1 1.4 7.1 1.4 1.9 0 3.6-0.4 5.2-1.3 3-1.5 3.1-7 2.4-10.2zm-9.2-19.1l0.2 0.1v0.2l0.1 2.1 8.9 2.8 0.1-8.1c-1.7-0.6-12.1-4.1-14.9-4.7-2.1-0.5-6.1-1.3-11.3-1.3-2.1 0-4.5 0.1-6.5 0.4v6.1c0.9-0.1 3.5-0.4 6.7-0.4 4-0.1 10.1 0.4 16.7 2.8zm-36.1 25.2v-0.4-1.8l-10.2 2.7v8.1l14.3-4.1v-5.8l-3.7 1.1-0.4 0.2z" fill="#0033A0"></path>
		<path d="m22.8 11.7v0.4 18.2c2-0.5 4.9-1 5.8-1.2l0.1-18.4v-0.3l0.3-0.1c2.2-0.5 4.6-0.7 7-0.7 4.2 0 7.1 0.7 7.3 0.7l0.2 0.1v0.3 2.6c2 0.3 4.3 0.9 5.2 1.1 0.2-10-7-10.4-7.3-10.4-1.5-0.1-3-0.2-4.6-0.2-8.7 0-15.6 2.2-16.9 2.7v5.9l2.6-0.6 0.3-0.1zm20.7 40.8l-0.1 2.4v0.4h-0.4c-2.1-0.3-4.3-0.4-6.4-0.4-4.7 0-7.7 0.6-7.7 0.6l-0.4 0.1v-0.4l0.1-17.8c-1.2 0.2-4.1 0.9-5.9 1.4v17.7 0.2l-0.2 0.1-2.5 0.7v6.1c7.3-2.1 13.4-2.5 17.3-2.5 2.3 0 3.9 0.2 4.6 0.2h0.3 0.6c1.3 0 3.2-0.4 4.5-2 1.4-1.8 1.3-4.9 1.2-5.6-1.6-0.5-4.1-1-5-1.2zm0.1-30.5v22.1c1.7 0.3 4.3 0.8 5.2 1v-0.3-21.7c-1.9-0.5-4.3-0.9-5.2-1.1z" fill="#FFD100"></path>
		<path d="m49.5 66.7v-0.4h0.3c0.2 0 0.3 0 0.3 0.2s-0.2 0.2-0.3 0.2h-0.3zm0.9-0.2c0-0.3-0.2-0.4-0.6-0.4h-0.6v1.5h0.2v-0.6h0.2l0.4 0.6h0.3l-0.3-0.7c0.2-0.1 0.4-0.2 0.4-0.4zm-0.6 1.4c-0.6 0-1.1-0.5-1.1-1.1 0-0.7 0.5-1.1 1.1-1.1s1 0.5 1 1.1-0.4 1.1-1 1.1zm0-2.5c-0.7 0-1.3 0.5-1.3 1.4 0 0.8 0.6 1.4 1.3 1.4s1.3-0.5 1.3-1.4-0.6-1.4-1.3-1.4z" fill="#fff"></path>
		<g fill="#fff">
			<path d="m87.3 21.1c-0.5-0.1-1-0.3-1.6-0.3-1.7 0-2.2 0.8-2.2 1.4 0 0.8 0.6 1 1.4 1.2l1.5 0.3c1.8 0.4 3.8 0.9 3.8 3.2 0 2.1-1.6 3.6-5 3.6-1.3 0-2.7-0.1-4.4-0.6v-2.9h2.5v1.5c0.6 0.2 1.3 0.3 2.1 0.3 1.5 0 2.2-0.6 2.2-1.5 0-0.6-0.3-1-2-1.4l-1.3-0.3c-2.5-0.6-3.4-1.5-3.4-3.2 0-1.8 1.4-3.3 4.8-3.3 1.5 0 3 0.2 4 0.6v2.6h-2.3v-1.2z"></path>
			<path d="m96.8 21.6c2.9 0 4.9 1.6 4.9 4.5s-2 4.5-4.9 4.5-4.9-1.6-4.9-4.5c0-2.8 2-4.5 4.9-4.5zm0 7.4c1.2 0 2.4-0.7 2.4-2.8s-1.1-2.8-2.4-2.8c-1.2 0-2.4 0.7-2.4 2.8s1.2 2.8 2.4 2.8z"></path>
			<path d="m104.2 23.4h-1v-1.5h4.4v1.5h-1v4.2c0 0.9 0.6 1.5 1.9 1.5 1.4 0 1.8-0.9 1.8-1.6v-4h-1v-1.5h4.2v1.5h-1v3.5c0 2.1-0.8 3.8-4.1 3.8-2.4 0-4.2-0.9-4.2-2.6v-4.8z"></path>
			<path d="M117.9,23.4h-1.4l-0.1,1.1h-1.8l0.1-2.6h8.8l0.1,2.6h-1.8l-0.1-1.1h-1.4V29h1.1v1.5h-4.5V29h1.1V23.4z"></path>
			<path d="M125.9,23.4h-1v-1.5h4.4v1.5h-1v2h3.5v-2h-1v-1.5h4.4v1.5h-1V29h1v1.5h-4.4V29h1v-2.1h-3.5V29h1v1.5h-4.4     V29h1V23.4z"></path>
			<path d="m143.5 21h-1.3v-1.6h5.7c4.1 0 6.5 1.8 6.5 5.3 0 3.4-2.4 5.8-6.4 5.8h-5.8v-1.6h1.3v-7.9zm4.1 7.9c2.1 0 4.1-1.1 4.1-4.1 0-2.8-1.9-3.7-4.2-3.7h-1.4v7.8h1.5z"></path>
			<path d="m159.4 21.8h2.6l3.2 7.1h0.9v1.5h-4.4v-1.4h0.8l-0.5-1.3h-3.1l-0.5 1.3h0.8v1.5h-4.1v-1.5h0.8l3.5-7.2zm2.1 4.4l-1-2.6-1 2.6h2z"></path>
			<path d="m168.4 23.4h-1v-1.5h4.3v1.5h-0.9v2.5l3.1-2.5h-0.9v-1.5h4.2v1.5h-0.7l-3.3 2.7 3.4 3h0.8v1.5h-4.4v-1.6h0.8l-2.9-2.5v2.5h0.9v1.5h-4.3v-1.5h1v-5.6z"></path>
			<path d="m183.5 21.6c2.9 0 4.9 1.6 4.9 4.5s-2 4.5-4.9 4.5-4.9-1.6-4.9-4.5c0-2.8 2.1-4.5 4.9-4.5zm0 7.4c1.2 0 2.4-0.7 2.4-2.8s-1.1-2.8-2.4-2.8c-1.2 0-2.4 0.7-2.4 2.8 0.1 2.1 1.2 2.8 2.4 2.8z"></path>
			<path d="M193,23.4h-1.4l-0.1,1.1h-1.8l0.1-2.6h8.8l0.1,2.6h-1.8l-0.1-1.1h-1.4V29h1.1v1.5h-4.5V29h1.1V23.4z"></path>
			<path d="m203.6 21.8h2.6l3.2 7.1h0.9v1.5h-4.4v-1.4h0.8l-0.5-1.3h-3.1l-0.5 1.3h0.8v1.5h-4.1v-1.5h0.8l3.5-7.2zm2.1 4.4l-1-2.6-1 2.6h2z"></path>
			<path d="m87.3 40.1c-0.5-0.1-1-0.3-1.6-0.3-1.7 0-2.2 0.8-2.2 1.4 0 0.8 0.6 1 1.4 1.2l1.5 0.3c1.8 0.4 3.8 0.9 3.8 3.2 0 2.1-1.6 3.6-5 3.6-1.3 0-2.7-0.1-4.4-0.6v-2.9h2.5v1.5c0.6 0.2 1.3 0.3 2.1 0.3 1.5 0 2.2-0.6 2.2-1.5 0-0.6-0.3-1-2-1.4l-1.3-0.3c-2.5-0.6-3.4-1.5-3.4-3.2 0-1.8 1.4-3.3 4.8-3.3 1.5 0 3 0.2 4 0.6v2.6h-2.3v-1.2z"></path>
			<path d="m94.8 42.3h-1.4l-0.1 1.1h-1.8l0.1-2.6h8.8l0.1 2.6h-1.8l-0.1-1.1h-1.4v5.6h1.1v1.5h-4.5v-1.5h1.1v-5.6z"></path>
			<path d="m105.5 40.8h2.6l3.2 7.1h0.9v1.5h-4.4v-1.5h0.8l-0.5-1.3h-3.1l-0.5 1.3h0.8v1.5h-4.1v-1.5h0.8l3.5-7.1zm2.1 4.3l-1-2.6-1 2.6h2z"></path>
			<path d="m115.6 42.3h-1.4l-0.1 1.1h-1.8l0.1-2.6h8.8l0.1 2.6h-1.8l-0.1-1.1h-1.4v5.6h1.1v1.5h-4.5v-1.5h1.1v-5.6z"></path>
			<path d="m123.6 42.3h-1v-1.5h7.5l0.2 2.6h-1.8l-0.2-1.1h-2.3v2h2.5v1.5h-2.5v2.1h2.3l0.2-1.3h1.9l-0.3 2.8h-7.4v-1.5h0.9v-5.6z"></path>
			<path d="m144.9 38.4h4.7v1.6h-1.1v5.1c0 3.4-1.6 4.6-5.2 4.6-4 0-4.9-1.6-4.9-4v-5.7h-1.1v-1.6h4.7v1.6h-1v5.2c0 1.6 0.5 2.6 2.5 2.6 1.6 0 2.7-0.5 2.7-2.6v-5.2h-1.3v-1.6z"></path>
			<path d="m152 42.3h-1v-1.5h3.3l4.2 5.2v-3.7h-1v-1.5h4.1v1.5h-0.9v7.1h-2l-4.5-5.5v4h1v1.5h-4.1v-1.5h0.9v-5.6z"></path>
			<path d="m164.2 42.3h-1v-1.5h4.4v1.5h-1v5.6h1v1.5h-4.4v-1.5h1v-5.6z"></path>
			<path d="m169.7 42.3h-0.8v-1.5h4.4v1.5h-0.8l2 5.2 2.1-5.2h-0.9v-1.5h4.2v1.5h-0.9l-3.5 7.1h-2.4l-3.4-7.1z"></path>
			<path d="m182.2 42.3h-1v-1.5h7.5l0.2 2.6h-1.9l-0.2-1.1h-2.3v2h2.5v1.5h-2.5v2.1h2.3l0.2-1.3h1.9l-0.3 2.8h-7.4v-1.5h0.9v-5.6z"></path>
			<path d="m191.6 42.3h-1v-1.5h4.8c1.9 0 2.9 0.9 2.9 2.3 0 1-0.6 2-2.5 2.3 1 0.1 1.3 0.3 1.7 0.9l1 1.4c0.1 0.1 0.3 0.2 0.6 0.2 0.1 0 0.2 0 0.3-0.1v1.6h-1.7c-0.8 0-1.1-0.2-1.5-0.9l-1.3-2.2c-0.3-0.4-0.5-0.5-1.1-0.5v2h0.7v1.5h-4.1v-1.5h1v-5.5zm2.3 0v2.1h0.6c0.9 0 1.4-0.4 1.4-1.1 0-0.8-0.4-1-1.4-1h-0.6z"></path>
			<path d="m205.7 43.2v-0.8c-0.4-0.2-1-0.2-1.4-0.2-1 0-1.3 0.5-1.3 1 0 1.5 5.1 0.3 5.1 3.7 0 2.1-2.1 2.9-4.2 2.9-1 0-2.2-0.1-3.2-0.4l-0.1-2.4h2l0.1 1c0.4 0.2 1 0.3 1.5 0.3 0.9 0 1.5-0.6 1.5-1.1 0-1.6-5.1-0.3-5.1-3.6 0-1.6 1.3-2.9 4.1-2.9 1 0 1.9 0.2 2.9 0.5v2.1h-1.9z"></path>
			<path d="m210.8 42.3h-1v-1.5h4.4v1.5h-1v5.6h1v1.5h-4.4v-1.5h1v-5.6z"></path>
			<path d="m218.8 42.3h-1.4l-0.1 1.1h-1.8l0.1-2.6h8.8l0.1 2.6h-1.8l-0.1-1.1h-1.4v5.6h1.1v1.5h-4.5v-1.5h1.1v-5.6z"></path>
			<path d="m225.3 40.8h4.5v1.5h-0.8l1.7 2.2 1.6-2.2h-0.9v-1.5h4.2v1.5h-0.7l-3.2 3.8v1.9h1.1v1.5h-4.5v-1.5h1.1v-1.9l-3.3-3.8h-0.7v-1.5z"></path>
		</g>
</svg>
